<?xml version="1.0" encoding="utf-8"?><svg version="1.1" id="Layer_1" xmlns="http://www.w3.org/2000/svg" xmlns:xlink="http://www.w3.org/1999/xlink" x="0px" y="0px" viewBox="0 0 122.88 83.8" style="enable-background:new 0 0 122.88 83.8" xml:space="preserve"><g><path d="M106.79,49.54h-4.53v-4.53h4.53V49.54L106.79,49.54z M70.91,33.65c-0.1,0-0.19,0.01-0.29,0.01h-69c-0.1,0-0.2,0-0.29-0.01 C1,33.71,0.7,33.87,0.48,34.1C0.18,34.39,0,34.8,0,35.24v19.27c0,0.44,0.18,0.85,0.48,1.14c0.3,0.29,0.7,0.48,1.14,0.48h69 c0.44,0,0.85-0.19,1.14-0.48c0.3-0.29,0.48-0.7,0.48-1.14V35.24c0-0.44-0.18-0.84-0.48-1.14C71.53,33.87,71.24,33.71,70.91,33.65 L70.91,33.65L70.91,33.65z M63.4,39.19l1.09,1.09c0.29,0.29,0.29,0.76,0,1.05l-0.88,0.88c0.25,0.46,0.43,0.95,0.55,1.46l1.14,0 c0.41,0,0.74,0.33,0.74,0.74v1.55c0,0.41-0.33,0.74-0.74,0.74h-1.25c-0.15,0.5-0.37,0.98-0.65,1.42l0.81,0.81 c0.29,0.29,0.29,0.76,0,1.05l-1.09,1.09c-0.29,0.29-0.76,0.29-1.05,0l-0.88-0.88c-0.46,0.25-0.95,0.43-1.46,0.55v1.14 c0,0.41-0.33,0.74-0.74,0.74h-1.55c-0.41,0-0.74-0.33-0.74-0.74v-1.25c-0.5-0.15-0.98-0.37-1.42-0.65l-0.81,0.81 c-0.29,0.29-0.76,0.29-1.05,0l-1.09-1.09c-0.29-0.29-0.29-0.76,0-1.05l0.88-0.88c-0.25-0.46-0.43-0.95-0.55-1.46l-1.14,0 c-0.41,0-0.74-0.33-0.74-0.74v-1.55c0-0.41,0.33-0.74,0.74-0.74h1.25c0.15-0.5,0.37-0.98,0.65-1.42l-0.81-0.81 c-0.29-0.29-0.29-0.76,0-1.05l1.09-1.09c0.29-0.29,0.76-0.29,1.05,0l0.88,0.88c0.45-0.24,0.94-0.43,1.46-0.55V38.1 c0-0.41,0.33-0.74,0.74-0.74h1.55c0.41,0,0.74,0.33,0.74,0.74v1.25c0.5,0.15,0.98,0.37,1.42,0.65l0.81-0.81 C62.64,38.9,63.11,38.9,63.4,39.19L63.4,39.19L63.4,39.19z M58.41,41.94c1.68,0,3.04,1.36,3.04,3.04c0,1.68-1.36,3.04-3.04,3.04 c-1.68,0-3.04-1.36-3.04-3.04C55.37,43.31,56.73,41.94,58.41,41.94L58.41,41.94z M70.91,61.32c-0.1,0-0.19,0.01-0.29,0.01h-69 c-0.1,0-0.2,0-0.29-0.01C1,61.38,0.7,61.55,0.48,61.77C0.18,62.07,0,62.47,0,62.91v19.27c0,0.44,0.18,0.85,0.48,1.14 c0.3,0.29,0.7,0.48,1.14,0.48h69c0.44,0,0.85-0.19,1.14-0.48c0.3-0.29,0.48-0.7,0.48-1.14V62.91c0-0.44-0.18-0.84-0.48-1.14 C71.53,61.55,71.24,61.38,70.91,61.32L70.91,61.32L70.91,61.32z M6.87,67.3h4.05v10.49H6.87V67.3L6.87,67.3L6.87,67.3z M18.08,67.3 h4.05v10.49h-4.05V67.3L18.08,67.3L18.08,67.3z M29.29,67.3h4.05v10.49h-4.05V67.3L29.29,67.3L29.29,67.3z M6.87,39.63h4.05v10.49 H6.87V39.63L6.87,39.63L6.87,39.63z M18.08,39.63h4.05v10.49h-4.05V39.63L18.08,39.63L18.08,39.63z M29.29,39.63h4.05v10.49h-4.05 V39.63L29.29,39.63L29.29,39.63z M118.88,26.7c0.05,0,0.11,0,0.15,0.01c0.34-0.59,0.65-1.22,0.94-1.88 c0.01-0.01,0.01-0.02,0.02-0.03c0.42-1,0.75-2.03,0.96-3.11c0.16-0.84,0.27-1.68,0.31-2.56h-5.04c-0.09,2.56-0.86,5.08-2.28,7.57 h4.94V26.7L118.88,26.7z M118,28.31h-5.07c-1.54,2.23-3.62,4.43-6.21,6.61c0.41-0.06,0.81-0.12,1.21-0.2 c1.09-0.22,2.13-0.54,3.15-0.98c1.02-0.44,1.98-0.96,2.87-1.55c0.89-0.59,1.7-1.26,2.46-2.02c0.58-0.58,1.12-1.2,1.61-1.86H118 L118,28.31z M102.39,34.92c-2.6-2.18-4.67-4.38-6.21-6.61h-5.07c0.48,0.66,1.02,1.28,1.61,1.86c0.76,0.76,1.57,1.43,2.46,2.02 c0.88,0.59,1.84,1.11,2.87,1.55c0.01,0.01,0.02,0.01,0.03,0.02c1,0.42,2.03,0.75,3.11,0.96c0.4,0.08,0.8,0.14,1.21,0.2H102.39 L102.39,34.92z M90.05,26.7h5.1c-1.42-2.49-2.19-5.01-2.28-7.57h-5.04c0.04,0.88,0.14,1.73,0.31,2.56 c0.22,1.09,0.54,2.13,0.98,3.15C89.4,25.49,89.71,26.11,90.05,26.7L90.05,26.7z M87.84,17.53h5.07c0.19-2.51,1.02-5.03,2.51-7.57 h-5.37c-0.34,0.59-0.65,1.21-0.92,1.86c-0.01,0.01-0.01,0.02-0.02,0.03c-0.42,1-0.75,2.03-0.96,3.11 C87.98,15.8,87.87,16.65,87.84,17.53L87.84,17.53z M91.1,8.36h5.36c1.53-2.2,3.54-4.41,6.05-6.63c-0.45,0.05-0.89,0.12-1.32,0.21 c-1.09,0.22-2.13,0.54-3.15,0.98c-1.02,0.44-1.98,0.96-2.87,1.55c-0.89,0.59-1.7,1.26-2.46,2.02c-0.58,0.58-1.12,1.2-1.61,1.86 V8.36L91.1,8.36z M106.59,1.73c2.52,2.22,4.53,4.43,6.05,6.63H118c-0.48-0.66-1.02-1.28-1.61-1.86c-0.76-0.76-1.57-1.43-2.46-2.02 c-0.88-0.59-1.84-1.11-2.87-1.55c-0.01-0.01-0.02-0.01-0.03-0.02c-1-0.42-2.03-0.75-3.11-0.96c-0.44-0.09-0.88-0.15-1.32-0.21V1.73 L106.59,1.73z M119.04,9.96h-5.37c1.48,2.54,2.32,5.06,2.51,7.57h5.07c-0.04-0.88-0.14-1.73-0.31-2.56 c-0.22-1.09-0.54-2.13-0.98-3.15C119.69,11.17,119.38,10.56,119.04,9.96L119.04,9.96L119.04,9.96z M100.86,0.36 c1.19-0.24,2.42-0.36,3.68-0.36c1.26,0,2.49,0.12,3.68,0.36c1.18,0.23,2.31,0.58,3.42,1.06c0.01,0,0.03,0.01,0.04,0.02 c1.1,0.47,2.14,1.04,3.12,1.69c0.98,0.65,1.88,1.4,2.71,2.22c0.84,0.82,1.57,1.73,2.22,2.71c0.66,0.98,1.22,2.02,1.69,3.12 c0.48,1.12,0.84,2.28,1.08,3.46c0.24,1.19,0.36,2.42,0.36,3.68c0,1.26-0.12,2.49-0.36,3.68c-0.23,1.18-0.58,2.31-1.06,3.42 c0,0.01-0.01,0.03-0.02,0.04c-0.47,1.11-1.04,2.14-1.69,3.12c-0.65,0.98-1.4,1.88-2.22,2.71c-0.82,0.84-1.73,1.57-2.71,2.22 c-0.98,0.66-2.02,1.22-3.12,1.69c-1.12,0.48-2.28,0.84-3.46,1.08c-1.19,0.24-2.42,0.36-3.68,0.36c-1.26,0-2.49-0.12-3.68-0.36 c-1.18-0.23-2.31-0.58-3.42-1.06c-0.01,0-0.03-0.01-0.04-0.02c-1.1-0.47-2.14-1.04-3.12-1.69c-0.98-0.65-1.88-1.4-2.71-2.22 c-0.84-0.82-1.57-1.73-2.22-2.71c-0.66-0.98-1.22-2.02-1.69-3.12c-0.48-1.12-0.84-2.28-1.08-3.46c-0.24-1.19-0.36-2.42-0.36-3.68 c0-1.26,0.12-2.49,0.36-3.68c0.23-1.18,0.58-2.31,1.06-3.42c0-0.01,0.01-0.03,0.02-0.04c0.47-1.11,1.04-2.14,1.69-3.12 s1.4-1.88,2.22-2.71c0.82-0.84,1.73-1.57,2.71-2.22c0.98-0.66,2.02-1.22,3.12-1.69C98.52,0.96,99.67,0.6,100.86,0.36L100.86,0.36z M105.35,2.77v5.59h5.32C109.28,6.51,107.51,4.65,105.35,2.77L105.35,2.77z M105.35,9.96v7.57h9.23c-0.21-2.49-1.13-5-2.78-7.57 H105.35L105.35,9.96z M105.35,19.14v7.57h6.72c1.59-2.51,2.44-5.03,2.54-7.57H105.35L105.35,19.14z M105.35,28.31v5.65 c2.28-1.87,4.15-3.76,5.6-5.65H105.35L105.35,28.31z M103.74,33.96v-5.65h-5.6C99.59,30.2,101.46,32.09,103.74,33.96L103.74,33.96z M103.74,26.7v-7.57h-9.26c0.1,2.54,0.96,5.06,2.54,7.57H103.74L103.74,26.7z M103.74,17.53V9.96H97.3 c-1.65,2.56-2.57,5.08-2.78,7.57H103.74L103.74,17.53z M103.74,8.36V2.77c-2.16,1.88-3.93,3.74-5.32,5.59H103.74L103.74,8.36z M25.24,22.54h-4.53v-4.53h4.53V22.54L25.24,22.54z M25.24,13.47h-4.53v-2.43V8.78h2.27h2.11v2.27h0.16V13.47L25.24,13.47z M29.61,13.31V8.78h4.53v4.53H29.61L29.61,13.31z M38.68,13.31V8.78h4.53v4.53H38.68L38.68,13.31z M47.75,13.31V8.78h4.53v4.53 H47.75L47.75,13.31z M56.82,13.31V8.78h4.53v4.53H56.82L56.82,13.31z M65.89,13.31V8.78h4.53v4.53H65.89L65.89,13.31z M74.96,13.31 V8.78h4.53v4.53H74.96L74.96,13.31z M83.67,76.3v-4.53h4.53v4.53H83.67L83.67,76.3z M92.74,76.3v-4.53h4.53v4.53H92.74L92.74,76.3z M101.81,76.3v-4.53h2.71v0.44h2.27v1.82v2.27h-2.27H101.81L101.81,76.3z M106.79,67.68h-4.53v-4.53h4.53V67.68L106.79,67.68z M106.79,58.61h-4.53v-4.53h4.53V58.61L106.79,58.61z"/></g></svg>